<svg width="251.604" height="61.101" viewBox="0 0 251.604 61.101" xmlns="http://www.w3.org/2000/svg"><g id="svgGroup" stroke-linecap="round" fill-rule="evenodd" font-size="9pt" stroke="#ffffff" stroke-width="0.25mm" fill="#ffffff" style="stroke:#ffffff;stroke-width:0.25mm;fill:#ffffff"><path d="M 165.4 2.201 L 162.4 2.901 L 141.5 58.201 L 144.6 58.901 L 144.5 60.801 L 128.8 60.801 L 128.7 58.901 L 131.8 58.201 L 111.4 2.901 L 108.4 2.201 L 108.5 0.301 L 126.9 0.301 L 127 2.401 L 122.6 2.901 L 125 16.201 L 137.5 52.401 L 149.9 16.201 L 152.2 2.901 L 147.8 2.401 L 147.9 0.301 L 165.3 0.301 L 165.4 2.201 Z M 100.7 58.201 L 98.2 45.701 L 96.3 40.401 L 73.5 40.401 L 71.5 45.701 L 68.5 58.201 L 72.8 58.701 L 72.7 60.801 L 56 60.801 L 55.9 58.901 L 58.9 58.201 L 81.5 2.901 L 77.7 2.201 L 77.8 0.301 L 94.2 0.301 L 94.3 2.201 L 90.5 2.901 L 111.4 58.201 L 114.4 58.901 L 114.3 60.801 L 96.5 60.801 L 96.4 58.701 L 100.7 58.201 Z M 0 58.801 L 3 58.101 L 4.2 41.001 L 4.2 20.101 L 3 3.001 L 0 2.301 L 0.1 0.401 Q 12.3 0.001 23.6 0.001 A 49.668 49.668 0 0 1 31.768 0.627 Q 36.064 1.345 39.467 2.886 A 21.282 21.282 0 0 1 45.7 7.101 Q 51.153 12.478 52.476 22.615 A 54.075 54.075 0 0 1 52.9 29.601 A 47.161 47.161 0 0 1 51.445 41.875 Q 46.25 61.101 22.5 61.101 L 0.1 60.701 L 0 58.801 Z M 198.7 58.801 L 201.7 58.101 L 202.9 41.001 L 202.9 20.101 L 201.7 3.001 L 198.7 2.301 L 198.8 0.401 Q 211 0.001 222.3 0.001 A 49.668 49.668 0 0 1 230.468 0.627 Q 234.764 1.345 238.167 2.886 A 21.282 21.282 0 0 1 244.4 7.101 Q 249.853 12.478 251.176 22.615 A 54.075 54.075 0 0 1 251.6 29.601 A 47.161 47.161 0 0 1 250.145 41.875 Q 244.95 61.101 221.2 61.101 L 198.8 60.701 L 198.7 58.801 Z M 170.4 58.901 L 173.4 58.201 L 174.6 41.001 L 174.6 20.001 L 173.4 2.901 L 170.4 2.201 L 170.5 0.301 L 186.6 0.301 L 186.7 2.201 L 183.7 2.901 L 182.5 20.101 L 182.5 41.101 L 183.7 58.201 L 186.7 58.901 L 186.6 60.801 L 170.5 60.801 L 170.4 58.901 Z M 12.1 20.201 L 12.1 41.101 L 12.9 53.101 A 32.84 32.84 0 0 0 18.936 54.395 A 43.432 43.432 0 0 0 24.2 54.701 Q 42.393 54.701 43.699 34.454 A 50.569 50.569 0 0 0 43.8 31.201 A 50.55 50.55 0 0 0 43.389 24.523 Q 42.929 21.082 41.955 18.293 A 19.249 19.249 0 0 0 38.6 12.201 Q 33.4 6.001 22.6 6.001 A 29.935 29.935 0 0 0 14.982 7.017 A 35.017 35.017 0 0 0 13 7.601 L 12.1 20.201 Z M 210.8 20.201 L 210.8 41.101 L 211.6 53.101 A 32.84 32.84 0 0 0 217.636 54.395 A 43.432 43.432 0 0 0 222.9 54.701 Q 241.093 54.701 242.399 34.454 A 50.569 50.569 0 0 0 242.5 31.201 A 50.55 50.55 0 0 0 242.089 24.523 Q 241.629 21.082 240.655 18.293 A 19.249 19.249 0 0 0 237.3 12.201 Q 232.1 6.001 221.3 6.001 A 29.935 29.935 0 0 0 213.682 7.017 A 35.017 35.017 0 0 0 211.7 7.601 L 210.8 20.201 Z M 93.9 33.701 L 85.4 10.101 L 76.1 33.701 L 93.9 33.701 Z" vector-effect="non-scaling-stroke"/></g></svg>